:SAMPLES-PER-SECOND 30
:FULLY-SPECIFIED
:DEGREES
1287
root  -82.5949 40.2808 -25.2264 -6.70067 -31.7528 3.22418
RightUpLeg  -2.58284 -5.61434 -5.91209
RightLeg  17.3182 5.39511 -0.0791866
RightFoot  -9.47998 -0.0864148 1.36492
RightToes  -8.14909e-010 0 -3.6325e-017
Spine  3.19536 3.74226 13.0353
Spine1  10.2453 6.16528 -6.28679
HEad  -15.391 4.80276 -4.28174
LeftShoulder1  1.00501 0.82605 -31.4725
LeftArm  -3.91132 -10.4558 -49.0915
LeftForeArm  34.9908 0.978048 -8.8027
LeftHand  0.0861167 8.79806 4.30521
RightShoulder  0.0767511 -3.12649 14.8406
RightArm  -25.3197 63.0319 54.7901
RightForeArm  -14.2736 66.2898 28.5679
RightHand  -1.21883 3.64281 -15.5849
LeftUpLeg  -4.28739 -1.91078 4.3938
LeftLeg  9.01668 -12.166 -0.0840681
LeftFoot  -2.3702 0.278999 -3.3866
LeftToes  1.648e-009 -9.21574e-011 2.55256e-011
1288
root  -82.7508 40.274 -25.4444 -6.30647 -30.1233 2.29498
RightUpLeg  -2.01085 -7.36091 -5.23291
RightLeg  16.7609 5.30607 0.416844
RightFoot  -9.359 -0.0780247 0.848444
RightToes  -8.14909e-010 0 -3.6325e-017
Spine  4.91264 3.59324 15.6881
Spine1  8.48468 6.85688 -9.17177
HEad  -16.3735 1.68333 -2.89748
LeftShoulder1  1.05344 0.681015 -31.2821
LeftArm  -4.99666 -8.33416 -45.6378
LeftForeArm  36.2468 1.41981 -8.36722
LeftHand  0.0669938 8.51672 4.01635
RightShoulder  0.0642421 -3.19389 15.6804
RightArm  -30.2987 62.2565 49.4812
RightForeArm  -11.7629 67.1552 30.205
RightHand  -1.61682 7.94576 -14.408
LeftUpLeg  -4.77668 -0.36555 5.9737
LeftLeg  9.5578 -10.9252 -0.415682
LeftFoot  -2.79389 0.332218 -4.25408
LeftToes  1.648e-009 -9.21574e-011 2.55256e-011
1289
root  -82.8946 40.2925 -25.6197 -5.53659 -28.4438 1.78455
RightUpLeg  -2.21646 -8.1493 -4.68133
RightLeg  16.377 4.20968 0.469166
RightFoot  -9.22322 -0.0679857 0.286966
RightToes  -8.14909e-010 0 -3.6325e-017
Spine  5.54498 3.29876 16.9368
Spine1  7.31443 6.836 -10.4181
HEad  -18.1658 1.34024 -2.83083
LeftShoulder1  0.878111 1.203 -32.0749
LeftArm  -5.3473 -5.19856 -41.8666
LeftForeArm  35.4634 -0.40806 -8.42664
LeftHand  0.121265 10.2541 4.11224
RightShoulder  -0.0103405 -3.52053 17.5104
RightArm  -32.2025 61.9472 45.8902
RightForeArm  -2.10506 70.6921 36.5375
RightHand  -1.5928 12.2386 -10.7982
LeftUpLeg  -5.27734 1.82541 6.88473
LeftLeg  9.27832 -6.89376 0.127855
LeftFoot  -3.56801 0.426635 -5.93553
LeftToes  1.648e-009 -9.21574e-011 2.55256e-011
1290
root  -83.1671 40.3596 -25.7267 -5.24821 -26.5638 1.81915
RightUpLeg  -1.65753 -8.38337 -4.29362
RightLeg  15.3139 2.51827 -0.0719868
RightFoot  -9.01286 -0.0672859 0.32547
RightToes  -8.14909e-010 0 -3.6325e-017
Spine  5.23178 3.04302 15.9959
Spine1  7.17904 6.34936 -9.78585
HEad  -19.8893 1.4041 -2.85184
LeftShoulder1  0.889376 1.14056 -31.5624
LeftArm  -5.38838 -0.340189 -39.1087
LeftForeArm  31.9849 -3.05346 -8.49532
LeftHand  0.182123 9.65114 6.05547
RightShoulder  -0.0744151 -3.76971 19.2045
RightArm  -30.8193 61.5953 44.5838
RightForeArm  4.37863 73.1195 43.3027
RightHand  -2.20029 18.7318 -10.9816
LeftUpLeg  -4.82418 4.54807 7.12406
LeftLeg  8.23668 -2.47384 0.615909
LeftFoot  -3.06323 0.384918 -5.11373
LeftToes  1.648e-009 -9.21574e-011 2.55256e-011
1291
root  -83.347 40.4958 -25.8312 -5.15144 -25.7261 2.74817
RightUpLeg  -1.47065 -9.43379 -5.2215
RightLeg  14.1179 2.72552 0.478713
RightFoot  -8.47739 -0.0527715 -0.20495
RightToes  -8.14909e-010 0 -3.6325e-017
Spine  4.51625 3.1795 14.5298
Spine1  7.78859 6.31004 -9.5276
HEad  -21.1613 1.29088 -2.76981
LeftShoulder1  0.860021 1.18366 -30.9943
LeftArm  -6.13175 3.93615 -37.548
LeftForeArm  29.4144 -4.5921 -7.88041
LeftHand  0.0748722 8.34853 4.30752
RightShoulder  -0.0199321 -3.55474 19.5512
RightArm  -30.2051 60.6413 43.9497
RightForeArm  11.544 74.4055 47.5702
RightHand  -1.86164 19.9586 -8.88726
LeftUpLeg  -3.92925 6.3751 6.44487
LeftLeg  5.94019 1.2555 1.06026
LeftFoot  -1.83795 0.289159 -3.31241
LeftToes  1.648e-009 -9.21574e-011 2.55256e-011
1292
root  -83.4686 40.5409 -25.9683 -4.67825 -23.9301 2.2356
RightUpLeg  -1.02845 -9.00181 -4.43933
RightLeg  13.0062 0.566102 0.0183896
RightFoot  -7.99899 -0.054385 0.00891638
RightToes  -8.14909e-010 0 -3.6325e-017
Spine  4.43813 2.74535 13.9424
Spine1  7.6262 5.56384 -8.58646
HEad  -21.5996 0.846832 -3.18593
LeftShoulder1  0.803279 1.34479 -31.1218
LeftArm  -8.08917 7.28717 -36.5874
LeftForeArm  27.6456 -4.42764 -6.45108
LeftHand  0.0389149 7.16056 3.94038
RightShoulder  0.0609276 -3.2463 19.5852
RightArm  -29.3287 59.4263 43.8345
RightForeArm  12.3285 74.0659 45.8424
RightHand  -1.35258 17.0211 -7.44419
LeftUpLeg  -4.10071 6.72522 7.08466
LeftLeg  5.06677 2.97962 1.37641
LeftFoot  -1.24104 0.378547 -4.20606
LeftToes  1.648e-009 -9.21574e-011 2.55256e-011
1293
root  -83.6292 40.5578 -26.0232 -4.48943 -22.578 2.13458
RightUpLeg  -0.603638 -9.16993 -4.26761
RightLeg  12.3819 -0.580015 0.0490919
RightFoot  -8.03631 -0.056479 0.0554687
RightToes  -8.14909e-010 0 -3.6325e-017
Spine  3.56517 3.08109 12.5619
Spine1  8.65958 5.48179 -6.86854
HEad  -21.9996 -0.7724 -3.46986
LeftShoulder1  0.949494 0.879011 -30.1463
LeftArm  -9.5331 9.85272 -37.3429
LeftForeArm  26.2702 -3.77365 -5.59124
LeftHand  0.205701 9.95846 6.47919
RightShoulder  -0.0619575 -3.70188 20.6255
RightArm  -27.7496 59.3467 41.6849
RightForeArm  5.03444 71.8752 38.8423
RightHand  -1.31498 16.786 -7.28458
LeftUpLeg  -3.84405 7.80747 7.75536
LeftLeg  4.06789 2.08514 0.701956
LeftFoot  -1.69455 0.437753 -5.07047
LeftToes  1.648e-009 -9.21574e-011 2.55256e-011
1294
root  -83.3894 40.5971 -26.1623 -4.23608 -23.3483 2.43793
RightUpLeg  -1.40096 -9.11627 -4.62786
RightLeg  12.083 0.114014 0.0964014
RightFoot  -7.47266 -0.0605657 0.305546
RightToes  -8.14909e-010 0 -3.6325e-017
Spine  4.81159 3.24186 16.0637
Spine1  8.16985 6.9584 -11.5954
HEad  -22.8565 -1.85315 -2.62024
LeftShoulder1  1.05279 0.455384 -28.3986
LeftArm  -11.3149 11.7061 -38.7212
LeftForeArm  28.1303 -3.16099 -4.45045
LeftHand  0.11843 9.58994 4.44501
RightShoulder  -0.275808 -4.43852 22.3803
RightArm  -25.6557 60.015 40.5328
RightForeArm  -0.858977 69.2281 32.8477
RightHand  -1.00135 15.9902 -5.86884
LeftUpLeg  -3.91167 7.85578 7.39351
LeftLeg  3.38108 4.417 0.718311
LeftFoot  -1.93895 0.492201 -5.84058
LeftToes  1.648e-009 -9.21574e-011 2.55256e-011
1295
root  -83.3174 40.6333 -26.2399 -4.06694 -22.9149 2.43994
RightUpLeg  -1.43121 -9.58083 -4.92428
RightLeg  11.6655 0.135018 0.544555
RightFoot  -7.05305 -0.0414289 -0.175212
RightToes  -8.14909e-010 0 -3.6325e-017
Spine  5.57656 2.95319 16.9397
Spine1  7.51286 7.08718 -13.2142
HEad  -23.0268 -2.13678 -2.44283
LeftShoulder1  0.980868 0.696397 -28.8794
LeftArm  -9.41087 12.0352 -37.1817
LeftForeArm  27.7557 -1.42141 -5.30467
LeftHand  0.062209 8.459 3.89549
RightShoulder  -0.290761 -4.44842 23.5845
RightArm  -22.3784 60.0686 40.7536
RightForeArm  -5.53659 66.6304 28.534
RightHand  -1.28566 15.8467 -7.44723
LeftUpLeg  -3.95502 8.3151 7.49106
LeftLeg  3.09162 5.99966 0.426598
LeftFoot  -2.17099 0.405257 -4.88789
LeftToes  1.648e-009 -9.21574e-011 2.55256e-011
1296
root  -83.2151 40.6733 -26.331 -3.86594 -21.8036 2.65466
RightUpLeg  -1.57241 -9.42339 -5.09187
RightLeg  11.2106 -1.07419 0.109663
RightFoot  -6.68278 -0.0502997 0.11906
RightToes  -8.14909e-010 0 -3.6325e-017
Spine  6.0511 2.59976 16.5448
Spine1  7.36477 6.62732 -12.7571
HEad  -23.6299 -2.39943 -2.5332
LeftShoulder1  0.811717 1.25937 -30.0527
LeftArm  -9.18751 12.5264 -36.6054
LeftForeArm  29.2547 -1.51654 -5.42621
LeftHand  0.0457522 8.76201 3.0579
RightShoulder  -0.177356 -4.08603 22.7995
RightArm  -20.3605 59.6417 41.5215
RightForeArm  -6.65843 64.8916 26.0846
RightHand  -1.23699 15.0864 -7.42495
LeftUpLeg  -4.49299 8.22641 7.08197
LeftLeg  3.17738 7.43645 0.345978
LeftFoot  -2.61477 0.349753 -4.44789
LeftToes  1.648e-009 -9.21574e-011 2.55256e-011
1297
root  -83.1609 40.7088 -26.3488 -3.70667 -21.0602 2.80054
RightUpLeg  -1.46664 -9.23334 -5.1951
RightLeg  10.6175 -1.94842 -0.226016
RightFoot  -6.43602 -0.0725466 0.678091
RightToes  -8.14909e-010 0 -3.6325e-017
Spine  5.77628 2.73282 16.0142
Spine1  8.15495 6.7008 -12.3193
HEad  -23.9717 -3.18481 -2.63701
LeftShoulder1  0.786452 1.31868 -29.917
LeftArm  -9.13254 13.263 -37.4312
LeftForeArm  30.0457 -1.95963 -5.52215
LeftHand  0.0313233 9.23902 2.33621
RightShoulder  -0.130938 -3.92896 22.6767
RightArm  -18.8131 59.0591 41.0421
RightForeArm  -8.57568 63.5659 24.5715
RightHand  -1.31529 15.8206 -7.61543
LeftUpLeg  -4.75496 8.32792 6.74991
LeftLeg  2.99164 11.3755 0.406075
LeftFoot  -1.45113 0.220862 -2.43053
LeftToes  1.648e-009 -9.21574e-011 2.55256e-011
1298
root  -83.0406 40.7326 -26.3568 -3.28743 -20.422 2.58417
RightUpLeg  -1.52111 -9.43101 -5.29632
RightLeg  10.0851 -2.37672 0.0183979
RightFoot  -6.11214 -0.0748247 0.727243
RightToes  -8.14909e-010 0 -3.6325e-017
Spine  5.39795 2.68739 16.6969
Spine1  8.76768 6.96637 -13.4158
HEad  -23.972 -4.00165 -2.24948
LeftShoulder1  0.845923 1.07731 -28.7505
LeftArm  -10.09 14.5688 -39.2355
LeftForeArm  29.8389 -3.1377 -5.1028
LeftHand  0.0215459 9.51041 1.84217
RightShoulder  -0.043223 -3.62394 23.2684
RightArm  -17.1609 58.2925 40.2862
RightForeArm  -9.20174 62.5197 23.4148
RightHand  -1.22499 15.2867 -7.2818
LeftUpLeg  -5.07218 8.76617 6.97139
LeftLeg  3.06289 12.7445 0.113362
LeftFoot  -2.02503 0.226808 -2.63544
LeftToes  1.648e-009 -9.21574e-011 2.55256e-011
1299
root  -82.8426 40.7577 -26.3533 -3.17708 -19.464 2.7475
RightUpLeg  -1.38987 -9.91951 -6.01415
RightLeg  9.66464 -2.52716 0.272032
RightFoot  -5.88196 -0.0975145 1.20867
RightToes  -8.14909e-010 0 -3.6325e-017
Spine  5.55096 2.39058 17.3441
Spine1  8.86418 7.04071 -14.6787
HEad  -23.103 -4.3956 -2.26651
LeftShoulder1  0.862603 1.00777 -28.446
LeftArm  -10.4832 14.8194 -40.107
LeftForeArm  29.7995 -3.92156 -4.93574
LeftHand  -0.0479138 8.05076 -0.0232981
RightShoulder  0.0353125 -3.35899 23.6816
RightArm  -14.8216 57.0239 40.1922
RightForeArm  -9.33601 61.2371 22.0723
RightHand  -0.961297 14.553 -6.02418
LeftUpLeg  -5.1516 8.65662 6.53884
LeftLeg  2.68882 15.133 -0.0544905
LeftFoot  -1.54218 0.184111 -2.04336
LeftToes  1.648e-009 -9.21574e-011 2.55256e-011
